<?xml version="1.0" encoding="utf-8"?>
<!-- Generator: Adobe Illustrator 21.0.2, SVG Export Plug-In . SVG Version: 6.00 Build 0)  -->
<svg version="1.1" id="Layer_1" xmlns="http://www.w3.org/2000/svg" xmlns:xlink="http://www.w3.org/1999/xlink" x="0px" y="0px"
	 viewBox="0 0 1920.2 1075.6" style="enable-background:new 0 0 1920.2 1075.6;" xml:space="preserve">
<style type="text/css">
	.st0{opacity:0.11;fill:url(#Path_195_1_);enable-background:new    ;}
	.st1{fill:url(#Path_194_1_);}
	.st2{opacity:0.11;clip-path:url(#SVGID_2_);}
	.st3{fill:#E90034;}
	.st4{clip-path:url(#SVGID_2_);}
	.st5{opacity:0.3;fill:none;stroke:#000000;stroke-width:128;enable-background:new    ;}
</style>
<g id="Group_112" transform="translate(0.089 0.042)">
	
		<linearGradient id="Path_195_1_" gradientUnits="userSpaceOnUse" x1="859.9631" y1="638.3652" x2="859.9631" y2="637.3652" gradientTransform="matrix(1920.1835 0 0 -1075.636 -1650327 686648.5625)">
		<stop  offset="0" style="stop-color:#361CC1"/>
		<stop  offset="1" style="stop-color:#2E82EF"/>
	</linearGradient>
	<path id="Path_195" class="st0" d="M-0.1,607.4c0,0,100.4,239.9,401.2,191.5s442.1,9.6,537.6,114.9s352.1,94.3,581,52.4
		s363.2,41.8,400.4,109.4c0,0-0.4-1075.6-0.4-1075.6L0,0L-0.1,607.4z"/>
	
		<linearGradient id="Path_194_1_" gradientUnits="userSpaceOnUse" x1="859.9631" y1="638.2834" x2="859.9631" y2="637.2834" gradientTransform="matrix(1920.1058 0 0 -1075.621 -1650260.125 686639)">
		<stop  offset="0" style="stop-color:#0A002A"/>
		<stop  offset="1" style="stop-color:#000000"/>
	</linearGradient>
	<path id="Path_194" class="st1" d="M0,607.5c0,0,95.3,204.2,401.2,161.1c305.9-43,419.7-32.1,544.2,96.9s344,107.5,572.9,67.1
		s360.2,68.2,401.8,143c0-2.4-0.1-1075.6-0.1-1075.6L0,0L0,607.5z"/>
	<g>
		<defs>
			<path id="SVGID_1_" d="M0,607.5c0,0,95.3,204.2,401.2,161.1c305.9-43,419.7-32.1,544.2,96.9s344,107.5,572.9,67.1
				s360.2,68.2,401.8,143c0-2.4-0.1-1075.6-0.1-1075.6L0,0L0,607.5z"/>
		</defs>
		<clipPath id="SVGID_2_">
			<use xlink:href="#SVGID_1_"  style="overflow:visible;"/>
		</clipPath>
		<g class="st2">
			<g>
				<path class="st3" d="M265.3,331.6c-5,2.1-7.8,3.3-8.2,3.4c-1.1,0.4-2.2,0.1-3.3-0.9c-1.1-1-1.7-2.3-1.7-3.8
					c0-2.4,6.6-6.1,19.9-10.8c6.8-2.4,11.9-3.4,15.1-3c3.2,0.4,4.9,1.6,4.9,3.7c0,0.6-0.4,1.3-1.1,2.1c-0.7,0.8-1.6,1.4-2.7,1.7
					c-1.1,0.4-3,0.9-5.9,1.8c-2.9,0.8-5.5,1.6-7.8,2.4c0.2,0.5,0.3,1.2,0.3,1.9c0,0.8-0.3,2.4-0.8,4.8c-0.5,2.4-1.3,5.8-2.3,10.2
					c-1,4.4-2.1,9.6-3.2,15.7c-1.2,6.1-2,9.8-2.4,11c-0.4,1.2-0.9,1.9-1.3,2.1c-1,0.4-2.2-0.1-3.7-1.4c-1.5-1.3-2.2-2.5-2.2-3.7
					s1-6.3,2.9-15.3C263.7,344.4,264.9,337.1,265.3,331.6z"/>
				<path class="st3" d="M303.8,330.9c2.5-0.8,5.2-1.7,8.1-2.9c2.9-1.1,4.7-1.8,5.4-2c0.7-0.2,1.2-0.2,1.6,0c0.4,0.2,0.6,0.6,0.6,1
					c0,2.1-2,4.4-5.9,6.8c-3.9,2.4-8.1,4.4-12.5,6c-1.8,6.4-2.8,10.4-2.8,11.9c0,0.8,0.4,1.1,1.2,0.8c5.4-1.7,10.9-4.1,16.6-7.3
					c1.9-1.1,3-1.7,3.3-1.8c0.9-0.3,1.3,0.3,1.3,1.5c0,1.7-1.3,3.8-3.8,6.1c-2.5,2.4-5.6,4.6-9.4,6.7c-3.8,2.1-7.5,3.8-11.1,4.9
					c-2.2,0.7-4.1,0.5-5.8-0.6c-1.7-1.1-2.6-2.7-2.6-5c0-2.2,1.2-8.2,3.6-18c2.4-9.8,3.7-16.9,3.8-21.6c0-0.1-0.1-0.4-0.1-0.8
					c0-0.7,0.1-1.2,0.3-1.7c0.5-1.5,1.9-2.8,4.3-3.9c2.4-1.1,6.6-2.6,12.7-4.5c10.2-3.1,15.3-3.3,15.3-1c0,1.5-1.3,2.9-3.8,4.2
					c-1.7,0.9-4.1,1.9-7,3.1c-4.6,1.9-8.7,3.9-12.2,6c0,3.3-0.6,7.2-1.7,11.8C303.5,331,303.6,331,303.8,330.9z"/>
				<path class="st3" d="M363.6,300.1c1.2,2,1.9,3.8,1.9,5.5c0,1.7-0.9,4-2.6,6.8c-1.7,2.8-3.9,5.6-6.3,8.5
					c-2.5,2.8-4.9,5.5-7.4,8.2c-2.5,2.6-4.5,4.9-6.3,6.9c-1.7,1.9-2.6,3.2-2.6,3.7c0,0.7,0.4,1,1.1,0.8c2.3-0.6,5.6-1.8,9.8-3.5
					c4.2-1.7,7.3-2.7,9.4-3.2c3.2-0.8,4.8-0.3,4.8,1.4c0,1.5-1.6,3.4-4.9,5.7c-3.3,2.3-7.1,4.4-11.3,6.3c-4.3,1.9-8.1,3.4-11.4,4.3
					c-2.3,0.6-4.4,0-6.2-2.1c-1.8-2-2.7-4-2.7-5.9c0-2,1.4-4.9,4.3-8.8c2.9-3.9,6-7.6,9.4-11.2c3.4-3.5,6.6-6.9,9.5-9.9
					c2.9-3.1,4.3-5,4.3-5.6c0-2.2-2.9-2.6-8.8-1.1c-2,0.5-3.7,1.1-5.1,1.7c-1.4,0.6-2.3,1-2.7,1.1c-1.3,0.3-2.6-0.2-3.9-1.6
					c-1.3-1.4-2-2.7-2-4c0-1.2,1.4-2.6,4.2-4c1.5-0.7,3.4-1.4,5.8-2c5.1-1.4,10.4-1.7,15.7-1.1C360.9,297.1,362.3,298.2,363.6,300.1
					z"/>
				<path class="st3" d="M440,311.9c0,3-1.7,6.2-5,9.6c-3.3,3.4-7.3,6.4-12,8.9c-4.7,2.5-9.2,4.2-13.4,5c-1.8,0.3-4-0.4-6.4-2.1
					c-2.5-1.8-3.7-3.3-3.7-4.8c0-0.8,0.2-1.5,0.5-2.1c0.4-0.6,0.8-0.9,1.3-1c0.5-0.1,1.6,0.1,3.2,0.6c1.7,0.5,2.9,0.6,3.8,0.5
					c0.8-0.2,1.7-0.4,2.5-0.7c-1.2-0.3-2.4-0.9-3.6-1.8c-1.2-1-1.8-2-1.8-3.1c0-0.5,0.8-4.1,2.4-10.9c1.6-6.8,3.6-14.9,2.5-17.1
					c-0.3-0.5-1.6-1.5-2.3-2.5c-0.7-1-1-1.9-1-2.4c0-1.3,1.1-2.6,3.2-3.8c2.1-1.2,4.8-2.1,8-2.7c6.8-1.2,12.2-1.2,16.3-0.1
					c4.1,1.1,6.1,3.6,6.1,7.5c0,2.4-1,5.1-3.1,8c-2.1,2.9-4.8,5.6-8.2,8.3c0.3,0,0.4,0.1,0.7,0.1c2.9,0.3,5.3,1,7.3,2.2
					C439,308.5,440,310,440,311.9z M430.8,313c0-1-1.4-1.6-4.2-1.8c-2.8-0.2-5.1-0.2-6.9,0.1c-1,0.2-2.1-0.4-3.3-1.7
					c-2.2,9.3-3.5,14.4-3.9,15.3c4-1.6,8.1-3.6,12.2-6.1C428.8,316.5,430.8,314.5,430.8,313z M427.1,288.8c-1.5,0.3-5,1.4-10.6,3.4
					c1.7,1.6,2.6,3.1,2.6,4.3c0,1.3-0.4,3.7-1.2,7.2c0.8-0.7,2.1-1.8,4.1-3.2c2-1.4,3.2-2.4,3.7-2.8c0.5-0.4,1.2-1.1,2.1-2
					c1.6-1.6,2.5-3.2,2.5-4.9C430.3,289.1,429.3,288.5,427.1,288.8z"/>
				<path class="st3" d="M481.3,297.3c1.9-0.2,3.3-0.2,4.2,0.1c0.8,0.3,1.3,0.9,1.3,1.8c0,1.3-2.1,2.8-6.3,4.6
					c0.1,3.6,0.1,7.1,0.1,10.5c0,3.3-0.3,5.9-0.8,7.6c-0.5,1.7-1.4,2.6-2.6,2.8c-1.2,0.1-2.1-0.4-2.7-1.5c-0.7-1.1-1.2-3-1.6-5.6
					c-0.4-2.6-0.8-6.1-1.3-10.5c-5,1.7-8.5,3-10.7,4c-3.8,10.9-6.3,16.4-7.6,16.6c-1,0.1-2.4-0.3-4-1.4c-1.7-1.1-2.5-2.4-2.5-3.8
					c0-0.8,0.9-3.5,2.8-8c-0.8-0.4-1.5-1.1-2.1-2c-0.6-0.9-0.9-1.8-0.9-2.7c0-1.6,2.4-3.5,7.2-5.6c0.4-1,0.8-2.2,1.2-3.4
					c0.4-1.3,1.5-4.3,3.1-9c1.7-4.7,3-8.7,4-11.8c0.4-1.5,2-3,4.5-4.6c2.6-1.6,4.6-2.4,6.1-2.6c1.7-0.2,3.2,2,4.6,6.5
					c1.3,4.5,2.3,10.6,2.8,18.3C480.5,297.4,480.8,297.3,481.3,297.3z M464.5,300.5c1.5-0.4,3.6-0.9,6.3-1.5c-0.1-1.4-0.4-3.7-0.7-7
					c-0.3-3.3-0.5-5.7-0.7-7.2C468.6,287.5,466.9,292.8,464.5,300.5z"/>
				<path class="st3" d="M529.3,275.8c1.3,2.2,1.9,4.1,1.9,5.8c0,1.7-0.9,3.8-2.7,6.3c-1.8,2.5-3.9,4.9-6.5,7.3
					c-2.5,2.4-5.1,4.6-7.6,6.8c-2.5,2.2-4.7,4.1-6.4,5.7c-1.8,1.6-2.7,2.7-2.7,3.2c0,0.7,0.4,1.1,1.1,1c2.4-0.2,5.7-0.8,10-1.7
					c4.3-0.9,7.5-1.4,9.6-1.5c3.3-0.2,4.9,0.6,4.9,2.2c0,1.5-1.7,3.1-5,4.7c-3.4,1.7-7.2,3.1-11.6,4.3c-4.4,1.2-8.2,1.9-11.6,2.2
					c-2.4,0.2-4.5-0.9-6.3-3.2c-1.8-2.3-2.7-4.5-2.7-6.4c0-2,1.5-4.6,4.4-8c2.9-3.4,6.2-6.5,9.7-9.4c3.5-2.9,6.7-5.6,9.7-8.2
					c2.9-2.6,4.4-4.2,4.4-4.8c0-2.2-3-3.1-9-2.7c-2,0.2-3.8,0.4-5.2,0.8c-1.4,0.4-2.4,0.6-2.8,0.6c-1.3,0.1-2.7-0.7-4-2.3
					c-1.4-1.7-2-3.1-2-4.4c0-1.2,1.4-2.3,4.3-3.2c1.6-0.5,3.5-0.8,5.9-1c5.3-0.4,10.6,0.2,16.1,1.8
					C526.6,272.3,528,273.6,529.3,275.8z"/>
				<path class="st3" d="M574.5,291.9c2,0,3.4,0.2,4.2,0.5c0.9,0.4,1.3,1,1.3,2c0,1.3-2.1,2.6-6.4,4c0.1,3.6,0.1,7.1,0.1,10.5
					c0,3.3-0.3,5.8-0.8,7.5c-0.5,1.7-1.4,2.5-2.6,2.5c-1.2,0-2.1-0.6-2.7-1.7c-0.7-1.2-1.2-3.1-1.6-5.8c-0.4-2.7-0.8-6.2-1.3-10.6
					c-5,1.2-8.6,2.2-10.8,2.9c-3.8,10.5-6.3,15.8-7.6,15.8c-1,0-2.4-0.6-4.1-1.9c-1.7-1.3-2.5-2.6-2.5-4.1c0-0.8,1-3.4,2.9-7.8
					c-0.8-0.5-1.5-1.2-2.2-2.2c-0.6-1-0.9-1.9-0.9-2.8c0-1.6,2.4-3.2,7.2-4.8c0.4-1,0.8-2.1,1.2-3.3c0.4-1.2,1.5-4.1,3.1-8.7
					c1.7-4.6,3-8.4,4-11.4c0.4-1.5,2-2.8,4.6-4.1c2.6-1.3,4.6-2,6.1-2c1.7,0,3.2,2.3,4.6,6.9c1.3,4.6,2.3,10.8,2.8,18.6
					C573.8,291.9,574,291.9,574.5,291.9z M557.6,293.4c1.5-0.2,3.6-0.5,6.4-0.9c-0.1-1.4-0.4-3.8-0.7-7.1c-0.3-3.4-0.5-5.8-0.7-7.3
					C561.8,280.9,560.1,286,557.6,293.4z"/>
				<path class="st3" d="M624.9,317.3c0,2-1.4,2.9-4.2,2.8c-3.8-0.2-7.8-2.3-12-6.3c-4.2-4-7.1-8.1-8.9-12.4
					c-0.8,2.3-1.3,3.8-1.6,4.6c-0.3,0.8-0.7,2.1-1.3,3.9c-0.6,1.8-1,3.1-1.4,3.9c-0.3,0.9-0.7,1.8-1.1,2.7c-0.7,1.8-1.4,2.7-2.1,2.7
					c-1.1,0-2.5-1-4.1-2.8c-1.6-1.9-2.4-3.4-2.4-4.5c0-1.2,0.6-3.3,1.7-6.4c3.3-9.5,5.2-18.2,5.7-26.1c-0.9-0.7-1.8-1.7-2.5-3.1
					c-0.7-1.3-1.1-2.4-1.1-3.3c0-1.4,1.9-2.9,5.7-4.5c3.8-1.5,8.1-2.2,13.1-2.1c5,0.1,9.1,1.5,12.4,3.9c3.3,2.4,5,5.5,5,9.2
					c0,2.7-0.8,5.3-2.5,7.8c-1.6,2.4-3.4,4.3-5.3,5.7c-1.9,1.3-3.7,2.6-5.3,3.7c-1.6,1.1-2.5,1.8-2.5,2.2c0,1.2,0.4,2.3,1.2,3.3
					c0.8,1.1,1.9,2.3,3.3,3.7c1.4,1.4,2.6,2.6,3.7,3.6c1,1,1.9,1.8,2.5,2.4c0.7,0.7,1.3,1.3,1.9,2
					C624.2,315.5,624.9,316.5,624.9,317.3z M614.6,280c0-2-2-3.1-6-3.2c-1.9-0.1-4.2,0.4-6.8,1.4c1.2,1.9,1.8,3.5,1.8,5.1
					c0,2.8-0.4,5.8-1.2,9.2c0.5-0.4,1.5-1,3-2c1.5-0.9,2.6-1.7,3.4-2.3c0.8-0.6,1.7-1.3,2.7-2.3C613.6,284.2,614.6,282.2,614.6,280z
					"/>
				<path class="st3" d="M691.9,310.6c0,4.1-2,7.3-5.9,9.8c-3.9,2.5-8.4,3.5-13.5,3c-5.1-0.5-9.1-2.1-12.2-4.8
					c-3.1-2.7-4.6-5.4-4.6-8.1c0-2.6,0.8-3.9,2.3-3.8c1.2,0.1,2.4,0.8,3.6,2c1.3,1.3,2.7,2.5,4.3,3.8c1.6,1.3,3.4,2,5.4,2.2
					c2,0.2,4.3-0.4,6.8-1.8c2.5-1.4,3.8-2.6,3.8-3.7c0-1.1-1.4-3.1-4.1-6c-2.7-2.9-5.5-5.8-8.2-8.8c-2.7-3-4.1-5.3-4.1-6.8
					c0-1.5,0.3-3.1,0.8-4.9c0.6-1.7,1.3-2.9,2.1-3.5c2.6-2.3,6-4.2,10.2-5.6c4.2-1.4,7.8-1.9,11-1.6c1.8,0.2,3.4,1.2,4.6,2.9
					c1.2,1.7,1.8,3.4,1.8,5.1c0,0.7-0.5,1.1-1.6,1.4c-1.1,0.3-2.7,0.5-4.7,0.7c-2.1,0.2-4.2,0.6-6.3,1.2c-5,1.3-7.4,2.6-7.4,3.8
					c0,0.6,0.8,1.7,2.6,3.4c1.7,1.7,3.6,3.5,5.6,5.4c2,1.9,3.9,4.2,5.6,6.9C691,305.7,691.9,308.2,691.9,310.6z"/>
				<path class="st3" d="M713.6,285.9c-5.2-0.5-8.1-0.7-8.6-0.8c-1.2-0.2-2.3-1-3.5-2.6c-1.2-1.6-1.7-3.1-1.7-4.7
					c0-2.4,6.9-2.7,20.7-0.6c7.1,1.1,12.3,2.7,15.6,4.7c3.3,2,5,4,5,6.1c0,0.6-0.4,1.1-1.1,1.6c-0.7,0.4-1.6,0.5-2.8,0.4
					c-1.1-0.2-3.1-0.6-6.1-1.2c-2.9-0.6-5.6-1.1-8-1.6c0.2,0.6,0.3,1.3,0.3,2.1c0,0.8-0.3,2.2-0.8,4.4c-0.6,2.2-1.3,5.2-2.4,9
					c-1,3.9-2.1,8.5-3.3,14c-1.2,5.5-2,8.8-2.5,9.8c-0.5,1-0.9,1.5-1.3,1.4c-1-0.1-2.3-1.2-3.8-3.3c-1.5-2.1-2.3-3.7-2.3-4.8
					s1-5.8,3-13.9C711.8,297.8,713.1,291.1,713.6,285.9z"/>
				<path class="st3" d="M747.5,281c1.2,0.2,2.7,1.4,4.6,3.4c1.9,2.1,2.8,3.9,2.8,5.6s-0.9,5.8-2.6,12.4c-1.7,6.6-2.6,11.2-2.6,13.8
					c0,2.6,0.3,4.7,1,6.2c0.7,1.5,1.6,2.4,2.7,2.6c1.2,0.2,2.6-0.4,4.2-1.8c1.6-1.4,3.1-3.3,4.6-5.7c1.5-2.4,2.7-5.4,3.7-9
					c1-3.6,1.5-7,1.5-10.2c0-3.2-0.2-5.9-0.5-7.9c-0.3-2-0.5-3.2-0.5-3.6c0-1.5,0.6-2.1,1.9-1.9c1.5,0.3,3.5,2,5.9,5.1
					c2.4,3.1,3.6,6.5,3.6,10c0,3.6-0.6,7.5-1.9,11.9c-1.2,4.4-2.9,8.4-5,12.1c-2.1,3.7-4.8,6.6-8,8.7c-3.2,2.1-6.6,2.8-10,2.2
					c-3.4-0.6-6.5-3-9.2-7c-2.7-4-4.1-7.9-4.1-11.6c0-3.7,0.5-7.9,1.4-12.6c1-4.7,1.9-8.9,2.9-12.6c1-3.7,1.4-6.4,1.4-8
					S746.1,280.8,747.5,281z"/>
				<path class="st3" d="M786.1,288.9c3.7,0.8,7.8,2.6,12.2,5.2c4.4,2.6,8.5,5.6,12.3,9.1c3.8,3.5,7,7.3,9.5,11.5
					c2.5,4.2,3.8,8.1,3.8,11.7c0,2.7-2.1,5.4-6.5,8.3c-4.3,2.9-9.3,5.1-15,6.6c-5.7,1.5-10.3,1.9-14,1.1c-0.8-0.2-2.1-1.6-3.9-4.1
					c-1.8-2.5-2.7-4.3-2.7-5.3c0-2,1.3-7.2,3.9-15.6c2.6-8.4,4.2-14.2,4.8-17.4c-1.7-1.5-3.2-3.3-4.3-5.1c-1.1-1.9-1.7-3.4-1.7-4.5
					S785.1,288.7,786.1,288.9z M813.7,321.5c0-1.5-1.4-3.9-4.2-7.2c-2.8-3.2-6.1-6.1-9.8-8.7c-0.3,3.5-2.3,10.7-6.1,21.7
					c-0.2,0.6-0.5,1.5-0.9,2.9c-0.4,1.3-0.7,2.2-0.9,2.6c4.7-0.5,9.5-2,14.5-4.5C811.2,325.7,813.7,323.5,813.7,321.5z"/>
				<path class="st3" d="M831.9,350.3c-1.6-2.4-2.4-4.1-2.4-5c0-0.9,1.2-7.3,3.5-19.1c2.3-11.8,3.5-19.1,3.7-21.9
					c0.1-1.5,0.8-2.1,2.2-1.7c1.1,0.3,2.7,1.9,4.5,4.8c1.9,2.9,2.8,5.3,2.8,7.3c0,0.9-0.6,3.9-1.9,9.2c-1.3,5.3-2.2,8.9-2.6,11
					c-0.4,2.1-0.8,4-1.2,5.6c-0.3,1.7-0.6,3-0.8,3.9c-1.3,5.8-2.4,9-3.1,9.7c-0.3,0.3-0.6,0.3-0.9,0.3
					C834.8,354.1,833.5,352.7,831.9,350.3z"/>
				<path class="st3" d="M853,366.2c-1-0.3-2.2-1.5-3.5-3.6c-1.3-2.1-2-3.8-2-5.1c0-1.3,1.4-5.3,4.1-11.7c2.7-6.5,6-13.9,9.7-22.3
					c3.8-8.4,6-13.4,6.6-15.1c0.7-1.7,1-2.7,1.1-2.9c0.2-0.7,0.4-1,0.6-1c0.4-0.1,0.8-0.1,1.1,0c0.9,0.3,2.3,1.9,4.1,4.8
					c1.8,2.9,2.7,5.1,2.7,6.7c0,1.4-0.5,3.3-1.5,5.5c-1,2.3-1.9,4.2-2.7,5.8c-3.4,6.9-5.9,12.3-7.7,16.1
					C858.4,358.8,854.2,366.5,853,366.2z"/>
				<path class="st3" d="M883.4,369.3c-3.5-1.2-6.6-4-9.3-8.3c-2.7-4.4-4.1-8.3-4.1-11.7c0-4.4,0.8-8.7,2.5-12.8
					c1.6-4.1,3.7-7.4,6.2-10c2.5-2.6,5.2-4.4,8.1-5.6c2.9-1.2,5.7-1.3,8.1-0.4c4.5,1.6,8.2,5,11.1,10c2.9,5,4.3,10,4.3,15
					c0,4.9-1.2,9.5-3.6,13.7c-2.4,4.2-5.8,7.3-10,9.4C892.4,370.6,888,370.9,883.4,369.3z M890.3,359.3c2.7-1.5,5.1-3.8,7.1-6.8
					c2-3,3-6.3,3-9.7c0-3.5-0.4-6.3-1.3-8.5c-0.8-2.2-2-3.5-3.5-4.1c-1.5-0.5-3.4,0.2-5.8,2.1c-2.4,1.9-4.6,4.8-6.5,8.6
					c-1.9,3.8-2.9,7.7-2.9,11.8c0,2.1,0.3,3.8,0.8,5.3c0.6,1.5,1.3,2.3,2.1,2.6C885.3,361.2,887.6,360.8,890.3,359.3z"/>
			</g>
		</g>
		<g id="Mask_Group_6" class="st4">
			<path id="Path_4" class="st5" d="M25.6,687.7c0,0,174.2-392,817.4-255s869.4,77.5,1056.2-464"/>
		</g>
	</g>
</g>
</svg>
