<?xml version="1.0" encoding="utf-8"?>
<!-- Generator: Adobe Illustrator 21.0.2, SVG Export Plug-In . SVG Version: 6.00 Build 0)  -->
<svg version="1.2" baseProfile="tiny" id="Layer_1" xmlns="http://www.w3.org/2000/svg" xmlns:xlink="http://www.w3.org/1999/xlink"
	 x="111px" y="31px" viewBox="0 0 111.2 30.6" xml:space="preserve">
<g id="Group_2" transform="translate(-372.804 -44.291)">
	<text transform="matrix(1 0 0 1 409 68)" font-family="'Arial-BoldMT'" font-size="24px">TBS</text>
	<path id="Subtraction_1" d="M380.7,66.7L380.7,66.7c-2.1-1.2-3.6-3.3-4.2-5.7c-0.6-2.5-0.2-5.1,1.1-7.2c1.2-2.2,3.3-3.8,5.7-4.6
		c2.3-0.7,4.9-0.4,7,0.8L380.7,66.7L380.7,66.7z"/>
	<path id="Subtraction_2" d="M383.9,68L383.9,68c6.5,3.8,14.9,1.5,18.7-5c1.8-3.1,2.3-6.9,1.4-10.4c-0.9-3.5-3.2-6.5-6.4-8.3
		L383.9,68z"/>
</g>
</svg>
