<?xml version="1.0" encoding="utf-8"?>
<!-- Generator: Adobe Illustrator 21.0.2, SVG Export Plug-In . SVG Version: 6.00 Build 0)  -->
<svg version="1.1" id="Layer_2" xmlns="http://www.w3.org/2000/svg" xmlns:xlink="http://www.w3.org/1999/xlink" x="0px" y="0px"
	 viewBox="0 0 111.2 30.6" style="enable-background:new 0 0 111.2 30.6;" xml:space="preserve">
<style type="text/css">
	.st0{fill:none;stroke:#3BBEFF;stroke-width:2;stroke-linecap:round;stroke-miterlimit:10;}
	.st1{fill:#FF0039;}
	.st2{font-family:'Tahoma-Bold';}
	.st3{font-size:11.2381px;}
	.st4{fill:url(#SVGID_1_);}
</style>
<path class="st0" d="M31.5,2.9c5.2,1.8,9,6.7,9,12.6c0,7.3-5.9,13.3-13.3,13.3c-6.2,0-11.5-4.5-12.8-10.3"/>
<text transform="matrix(1 0 0 1 11.0173 18.6745)" class="st1 st2 st3">  BS</text>
<g>
	<linearGradient id="SVGID_1_" gradientUnits="userSpaceOnUse" x1="14.4579" y1="18.7164" x2="14.4579" y2="10.7156">
		<stop  offset="0" style="stop-color:#3BBEFF"/>
		<stop  offset="1" style="stop-color:#FF0039"/>
	</linearGradient>
	<path class="st4" d="M13.5,18.6l-0.2-1.2c-0.1-0.5-0.1-1.1-0.1-1.6l0-0.4c0-0.6,0-1.1,0.1-1.7l0.2-1.5H11v-1.6h6.9v1.6h-2.4
		l-0.1,1.3c-0.1,1-0.1,2-0.1,3l0,0.2c0,0.5,0.1,1,0.1,1.5l0.1,0.6C15.5,18.7,13.5,18.8,13.5,18.6z"/>
</g>
</svg>
