<?xml version="1.0" encoding="utf-8"?>
<!-- Generator: Adobe Illustrator 21.0.2, SVG Export Plug-In . SVG Version: 6.00 Build 0)  -->
<svg xmlns="http://www.w3.org/2000/svg" xmlns:xlink="http://www.w3.org/1999/xlink" width="111.196" height="30.566" viewBox="0 0 111.196 30.566">
<style type="text/css">
	.st0{fill:none;stroke:#3BBEFF;stroke-width:2;stroke-linecap:round;stroke-miterlimit:10;}
	.st1{fill:#FF0039;}
	.st2{fill:url(#SVGID_1_);}
</style>
<path class="st0" d="M31.5,2.9c5.2,1.8,9,6.7,9,12.6c0,7.3-5.9,13.3-13.3,13.3c-6.2,0-11.5-4.5-12.8-10.3"/>
<g>
	<path class="st1" d="M25,16.2c0,0.4-0.1,0.8-0.2,1.1c-0.2,0.3-0.4,0.6-0.6,0.8c-0.3,0.2-0.6,0.4-1,0.5s-0.8,0.2-1.4,0.2h-3.3v-8.2
		h2.9c0.6,0,1.1,0,1.4,0.1c0.3,0,0.6,0.1,0.9,0.3c0.3,0.2,0.5,0.4,0.7,0.6c0.1,0.3,0.2,0.6,0.2,0.9c0,0.4-0.1,0.8-0.3,1.1
		s-0.5,0.5-0.8,0.7v0c0.5,0.1,0.9,0.3,1.2,0.6C24.8,15.2,25,15.6,25,16.2z M22.4,12.8c0-0.1,0-0.3-0.1-0.4c-0.1-0.1-0.2-0.2-0.3-0.3
		C21.8,12,21.6,12,21.5,12c-0.2,0-0.5,0-0.8,0h-0.1v1.7h0.3c0.4,0,0.6,0,0.7,0c0.1,0,0.3,0,0.4-0.1c0.2-0.1,0.3-0.2,0.3-0.3
		S22.4,13,22.4,12.8z M22.9,16.1c0-0.3-0.1-0.5-0.2-0.6s-0.3-0.3-0.5-0.3c-0.1,0-0.3-0.1-0.5-0.1s-0.5,0-0.9,0h-0.4v2h0.1
		c0.5,0,0.9,0,1.1,0s0.4-0.1,0.6-0.1c0.2-0.1,0.3-0.2,0.4-0.4C22.8,16.5,22.9,16.3,22.9,16.1z"/>
	<path class="st1" d="M28.7,18.8c-0.6,0-1.2-0.1-1.6-0.2c-0.5-0.1-0.9-0.3-1.3-0.4v-1.9h0.2c0.4,0.3,0.9,0.6,1.4,0.8
		c0.5,0.2,1,0.3,1.4,0.3c0.1,0,0.3,0,0.5,0s0.3-0.1,0.5-0.1c0.1-0.1,0.3-0.1,0.4-0.3c0.1-0.1,0.1-0.3,0.1-0.4c0-0.2-0.1-0.4-0.2-0.5
		s-0.4-0.2-0.6-0.3c-0.3-0.1-0.6-0.1-0.9-0.2c-0.3-0.1-0.6-0.1-0.9-0.2c-0.6-0.2-1.1-0.5-1.4-0.9s-0.4-0.8-0.4-1.4
		c0-0.8,0.3-1.4,1-1.9c0.6-0.5,1.5-0.7,2.4-0.7c0.5,0,1,0,1.5,0.1c0.5,0.1,0.9,0.2,1.3,0.4v1.9h-0.2c-0.3-0.3-0.7-0.5-1.1-0.7
		c-0.4-0.2-0.9-0.3-1.3-0.3c-0.2,0-0.3,0-0.5,0c-0.1,0-0.3,0.1-0.5,0.1c-0.1,0.1-0.2,0.1-0.3,0.3c-0.1,0.1-0.1,0.2-0.1,0.4
		c0,0.2,0.1,0.4,0.2,0.5c0.1,0.1,0.4,0.2,0.9,0.3c0.3,0.1,0.5,0.1,0.8,0.2c0.3,0.1,0.5,0.1,0.8,0.2c0.6,0.2,1,0.5,1.3,0.8
		s0.4,0.8,0.4,1.4c0,0.8-0.3,1.5-1,2C30.6,18.6,29.8,18.8,28.7,18.8z"/>
</g>
<g>
	<linearGradient id="SVGID_1_" gradientUnits="userSpaceOnUse" x1="14.4579" y1="18.7164" x2="14.4579" y2="10.7156">
		<stop  offset="0" style="stop-color:#3BBEFF"/>
		<stop  offset="1" style="stop-color:#FF0039"/>
	</linearGradient>
	<path class="st2" d="M13.5,18.6l-0.2-1.2c-0.1-0.5-0.1-1.1-0.1-1.6l0-0.4c0-0.6,0-1.1,0.1-1.7l0.2-1.5H11v-1.6h6.9v1.6h-2.4
		l-0.1,1.3c-0.1,1-0.1,2-0.1,3l0,0.2c0,0.5,0.1,1,0.1,1.5l0.1,0.6C15.5,18.7,13.5,18.8,13.5,18.6z"/>
</g>
</svg>
