<?xml version="1.0" encoding="utf-8"?>
<!-- Generator: Adobe Illustrator 21.0.2, SVG Export Plug-In . SVG Version: 6.00 Build 0)  -->
<svg version="1.0" id="Layer_1" xmlns="http://www.w3.org/2000/svg" xmlns:xlink="http://www.w3.org/1999/xlink" x="0px" y="0px"
	 viewBox="0 0 100 100" style="enable-background:new 0 0 100 100;" xml:space="preserve">
<style type="text/css">
	.st0{fill:none;stroke:#3BBEFF;stroke-width:6;stroke-linecap:round;stroke-miterlimit:10;}
	.st1{fill:#FF0039;}
	.st2{fill:url(#SVGID_1_);}
</style>
<path class="st0" d="M67.5,13.9C83.5,19.3,95,34.4,95,52.2c0,22.3-18.1,40.4-40.4,40.4c-19,0-34.9-13.6-39.1-31.3"/>
<g>
	<path class="st1" d="M47.6,54.2c0,1.2-0.2,2.3-0.7,3.3c-0.5,0.9-1.1,1.7-1.9,2.3c-0.9,0.7-2,1.3-3.1,1.6c-1.1,0.3-2.5,0.5-4.3,0.5
		h-10V37h8.8c1.8,0,3.2,0.1,4.2,0.2c0.9,0.1,1.8,0.4,2.6,0.9c0.9,0.5,1.6,1.1,2,1.9c0.4,0.8,0.7,1.7,0.7,2.8c0,1.2-0.3,2.3-0.9,3.2
		c-0.6,0.9-1.4,1.6-2.5,2.1v0.1c1.5,0.3,2.8,1,3.7,2C47.1,51.2,47.6,52.6,47.6,54.2z M39.6,44c0-0.4-0.1-0.8-0.3-1.2
		c-0.2-0.4-0.5-0.7-1-0.9c-0.4-0.2-0.9-0.3-1.5-0.3c-0.6,0-1.4,0-2.5,0h-0.4v5.3h0.8c1.1,0,1.8,0,2.2,0c0.4,0,0.9-0.1,1.3-0.4
		c0.5-0.2,0.8-0.6,1-1C39.5,45,39.6,44.6,39.6,44z M41.1,54.1c0-0.8-0.2-1.4-0.5-1.8s-0.8-0.8-1.4-1c-0.4-0.1-0.9-0.2-1.6-0.2
		s-1.6,0-2.7,0h-1.2v6.2h0.3c1.6,0,2.8,0,3.4,0c0.6,0,1.3-0.2,1.9-0.5c0.6-0.2,1-0.6,1.2-1.1C41,55.3,41.1,54.7,41.1,54.1z"/>
	<path class="st1" d="M58.8,62.3c-1.9,0-3.6-0.2-5-0.6c-1.4-0.4-2.8-0.8-4-1.4v-5.9h0.6c1.2,1.1,2.6,1.9,4.1,2.4
		c1.5,0.6,3,0.9,4.4,0.9c0.4,0,0.8,0,1.4-0.1c0.6-0.1,1.1-0.2,1.4-0.4c0.4-0.2,0.8-0.5,1.1-0.8c0.3-0.3,0.5-0.8,0.5-1.3
		c0-0.6-0.2-1.1-0.7-1.5s-1.1-0.7-1.8-0.9c-0.8-0.2-1.8-0.4-2.7-0.6c-1-0.2-1.9-0.4-2.7-0.7c-1.9-0.7-3.3-1.6-4.1-2.7
		s-1.3-2.6-1.3-4.3c0-2.3,1-4.2,3-5.7c2-1.4,4.4-2.2,7.4-2.2c1.5,0,3,0.2,4.4,0.5c1.5,0.3,2.8,0.7,3.9,1.2v5.7h-0.6
		c-0.9-0.8-2.1-1.5-3.4-2c-1.3-0.5-2.7-0.8-4.1-0.8c-0.5,0-1,0-1.5,0.1c-0.4,0.1-0.9,0.2-1.4,0.5c-0.4,0.2-0.7,0.4-1,0.8
		c-0.3,0.4-0.4,0.7-0.4,1.2c0,0.6,0.2,1.1,0.7,1.5c0.4,0.4,1.3,0.7,2.6,1c0.8,0.2,1.6,0.4,2.4,0.6c0.8,0.2,1.6,0.4,2.5,0.7
		c1.7,0.6,3,1.5,3.9,2.5s1.3,2.4,1.3,4.2c0,2.5-1,4.5-2.9,6C64.8,61.6,62.1,62.3,58.8,62.3z"/>
</g>
<g>
	<linearGradient id="SVGID_1_" gradientUnits="userSpaceOnUse" x1="15.4978" y1="61.9969" x2="15.4978" y2="37.6259">
		<stop  offset="0" style="stop-color:#3BBEFF"/>
		<stop  offset="1" style="stop-color:#FF0039"/>
	</linearGradient>
	<path class="st2" d="M12.5,61.6l-0.6-3.6c-0.2-1.7-0.3-3.3-0.3-5l0-1.3c0-1.8,0.1-3.5,0.3-5.2l0.5-4.7H5V37h21v4.7h-7.4l-0.4,3.9
		c-0.3,3.1-0.4,6.2-0.2,9.2l0,0.6c0.1,1.5,0.2,3.1,0.4,4.6l0.2,1.8C18.6,61.9,12.7,62.3,12.5,61.6z"/>
</g>
</svg>
