<?xml version="1.0" encoding="utf-8"?>
<!-- Generator: Adobe Illustrator 21.0.2, SVG Export Plug-In . SVG Version: 6.00 Build 0)  -->
<svg xmlns="http://www.w3.org/2000/svg" xmlns:xlink="http://www.w3.org/1999/xlink" width="60" height="60" viewBox="0 0 400 400">
<style type="text/css">
	.st0{fill:none;stroke:#3BBEFF;stroke-width:24;stroke-linecap:round;stroke-miterlimit:10;}
	.st1{fill:#FF0039;}
	.st2{fill:url(#SVGID_1_);}
</style>
<path class="st0" d="M269.3,49.9c63.2,21.3,108.7,81,108.7,151.4c0,88.2-71.5,159.7-159.7,159.7c-75.3,0-138-53.8-154.8-123.9"/>
<g>
	<path class="st1" d="M190.3,209.4c0,4.9-0.9,9.2-2.8,12.9c-1.8,3.7-4.3,6.8-7.5,9.2c-3.7,2.9-7.8,5-12.2,6.2
		c-4.4,1.2-10.1,1.8-16.9,1.8h-39.4v-98.5h34.8c7.2,0,12.7,0.3,16.4,0.8c3.7,0.6,7.2,1.7,10.5,3.5c3.5,1.9,6.2,4.4,7.9,7.6
		c1.7,3.2,2.6,6.8,2.6,11c0,4.8-1.2,9.1-3.6,12.8c-2.4,3.7-5.7,6.5-10,8.3v0.5c6.1,1.3,11,3.9,14.6,7.8
		C188.5,197.4,190.3,202.7,190.3,209.4z M158.6,168.9c0-1.6-0.4-3.2-1.2-4.9c-0.8-1.7-2.1-2.9-3.8-3.6c-1.6-0.7-3.6-1.1-5.8-1.2
		c-2.2-0.1-5.5-0.1-10-0.1h-1.7V180h3.1c4.2,0,7.2,0,8.9-0.1c1.7-0.1,3.4-0.6,5.3-1.4c2-0.9,3.4-2.2,4.1-3.8
		S158.6,171.1,158.6,168.9z M164.9,208.9c0-3-0.6-5.4-1.9-7.1s-3.1-3-5.6-3.9c-1.5-0.6-3.6-0.9-6.2-1c-2.6-0.1-6.1-0.1-10.5-0.1
		h-4.6v24.7h1.3c6.4,0,10.9,0,13.4-0.1c2.5-0.1,5-0.7,7.5-1.8c2.2-1,3.9-2.4,4.9-4.3C164.3,213.4,164.9,211.3,164.9,208.9z"/>
	<path class="st1" d="M234.9,241.3c-7.5,0-14.2-0.7-19.9-2.2c-5.7-1.4-11-3.3-15.9-5.4v-23.4h2.2c4.9,4.2,10.4,7.4,16.3,9.7
		c6,2.2,11.7,3.4,17.3,3.4c1.4,0,3.3-0.2,5.6-0.5c2.3-0.3,4.2-0.8,5.6-1.5c1.7-0.8,3.2-1.8,4.4-3.1c1.2-1.4,1.8-3.1,1.8-5.3
		c0-2.5-1-4.5-2.9-6c-1.9-1.5-4.2-2.7-6.9-3.4c-3.3-0.9-6.9-1.7-10.7-2.5c-3.8-0.8-7.4-1.8-10.7-2.9c-7.6-2.7-13.1-6.3-16.4-10.8
		s-5-10.2-5-17.1c0-9.2,3.9-16.7,11.7-22.4c7.8-5.7,17.5-8.6,29.2-8.6c5.9,0,11.7,0.6,17.5,1.8c5.8,1.2,11,2.8,15.6,4.8v22.5h-2.2
		c-3.7-3.1-8.1-5.8-13.4-7.9c-5.3-2.2-10.7-3.2-16.2-3.2c-2.2,0-4.1,0.2-5.8,0.5c-1.7,0.3-3.5,0.9-5.4,1.8c-1.5,0.7-2.9,1.7-4,3.1
		c-1.1,1.4-1.7,2.9-1.7,4.7c0,2.5,0.9,4.5,2.7,6c1.8,1.5,5.2,2.8,10.3,4c3.3,0.7,6.5,1.5,9.6,2.2c3.1,0.7,6.3,1.7,9.8,2.9
		c6.8,2.5,11.9,5.8,15.2,10c3.3,4.2,5,9.7,5,16.5c0,9.8-3.8,17.7-11.5,23.6C258.4,238.4,248,241.3,234.9,241.3z"/>
</g>
<g>
	<linearGradient id="SVGID_1_" gradientUnits="userSpaceOnUse" x1="63.4798" y1="240.0598" x2="63.4798" y2="143.6452">
		<stop  offset="0" style="stop-color:#3BBEFF"/>
		<stop  offset="1" style="stop-color:#FF0039"/>
	</linearGradient>
	<path class="st2" d="M51.6,238.4L49.3,224c-0.9-6.6-1.4-13.2-1.3-19.8l0-5.2c0-6.9,0.4-13.8,1.2-20.7l2-18.4H22v-18.8h82.9v18.8
		H75.8l-1.7,15.5c-1.3,12.1-1.6,24.4-0.9,36.6l0.1,2.4c0.3,6,0.9,12.1,1.6,18.1l0.9,7.2C75.8,239.5,52.2,241.3,51.6,238.4z"/>
</g>
</svg>
