<?xml version="1.0" encoding="utf-8"?>
<!-- Generator: Adobe Illustrator 24.1.2, SVG Export Plug-In . SVG Version: 6.00 Build 0)  -->
<svg version="1.1" id="Layer_1" xmlns="http://www.w3.org/2000/svg" xmlns:xlink="http://www.w3.org/1999/xlink" x="0px" y="0px"
	 viewBox="0 0 400 400" style="enable-background:new 0 0 400 400;" xml:space="preserve">
<style type="text/css">
	.st0{fill:none;stroke:#FF0000;stroke-width:42;stroke-miterlimit:10;}
	.st1{fill:none;}
	.st2{font-family:'MyanmarText-Bold';}
	.st3{font-size:30.3574px;}
	.st4{fill:#FFFFFF;}
	.st5{font-size:34px;}
</style>
<path id="Text" class="st0" d="M355,203c-0.34,144.2-67.43,199.04-150,150c-71.23-42.31-150-67.16-150-150S122.16,53,205,53
	S355.19,120.16,355,203z"/>
<path id="SVGID_x5F_1_x5F_" class="st1" d="M294.77,98.19c57.88,49.58,64.62,136.7,15.04,194.58s-136.7,64.62-194.58,15.04
	s-64.62-136.7-15.04-194.58S236.89,48.61,294.77,98.19z"/>
<text><textPath  xlink:href="#SVGID_x5F_1_x5F_" startOffset="103.3203%">
<tspan  class="st4 st2" style="font-size:31.28px;">TAKE</tspan></textPath>
</text>
<circle cx="199.5" cy="199.5" r="86.5"/>
<path id="SVGID_x5F_2_x5F_" class="st1" d="M278.2,148.41c28.47,43.54,16.26,101.92-27.28,130.39
	c-43.54,28.47-101.92,16.26-130.39-27.28S104.27,149.6,147.8,121.13S249.72,104.87,278.2,148.41z"/>
<text class="st2 st3"><textPath  xlink:href="#SVGID_x5F_2_x5F_" startOffset="105.8594%">
A</textPath>
</text>
<text transform="matrix(1 0 0 1 153.3477 208.1738)" class="st4 st2 st5">NOTE</text>
</svg>
